<svg xmlns="http://www.w3.org/2000/svg" viewBox="0 0 293.31 289.09"><defs><style>.cls-1{fill:#01a157;}.cls-2{fill:#bde0ce;}.cls-3{fill:#ff9600;}.cls-4{fill:#3cbf71;}.cls-5{fill:#279c43;}.cls-6{fill:#10823e;}.cls-7{fill:#6cd199;}.cls-8{fill:#1c9b4f;}.cls-20,.cls-9{fill:#ffcd00;}.cls-10{fill:#fff0d1;}.cls-11{fill:#eab488;}.cls-12{fill:#003c7b;}.cls-13{fill:#023868;}.cls-14{fill:#1f9188;}.cls-15{fill:#195ca0;}.cls-16{font-size:5.91px;font-family:Poppins-Light, Poppins;font-weight:300;letter-spacing:0.02em;}.cls-16,.cls-17{fill:#d1d1d1;}.cls-18{fill:#fff;}.cls-19{fill:#ff4a0b;}.cls-20{opacity:0.7;}.cls-21{fill:#52b5b0;}.cls-22{fill:#d68c56;}.cls-23{fill:#003768;}</style></defs><g id="Layer_2" data-name="Layer 2"><g id="OBJECTS"><path class="cls-1" d="M46.78,170.21l-20.35,1.9,7.49,7.49L16.59,196.92A2.42,2.42,0,1,0,20,200.34L37.33,183l7.55,7.56Z"/><path class="cls-2" d="M152.09,283.77c0,2.94-25.88,5.32-57.8,5.32s-57.81-2.38-57.81-5.32,25.88-5.32,57.81-5.32S152.09,280.83,152.09,283.77Z"/><ellipse class="cls-2" cx="214.78" cy="258.72" rx="47.25" ry="5.3"/><ellipse class="cls-2" cx="21.91" cy="264.02" rx="21.22" ry="1.93"/><path class="cls-3" d="M139.56,139.51A5.56,5.56,0,1,1,145,134,5.25,5.25,0,0,1,139.56,139.51Zm0-8.32c-1.46,0-2.29,1-2.29,2.77s.83,2.77,2.29,2.77,2.25-1,2.25-2.77S141,131.19,139.56,131.19ZM124,139.14l14.85-25.29h3.8l-14.81,25.29Zm3.15-14.56a5.54,5.54,0,1,1,5.46-5.55A5.25,5.25,0,0,1,127.17,124.58Zm0-8.32c-1.43,0-2.25,1-2.25,2.77s.82,2.8,2.25,2.8,2.29-1,2.29-2.8S128.63,116.26,127.17,116.26Z"/><polygon class="cls-4" points="253.32 88.4 158.3 88.4 177.11 107.21 90.34 196.41 136.63 248.48 228.15 158.25 253.32 183.41 253.32 88.4"/><path class="cls-5" d="M136.86,241.47,96.94,196.56l87-89.4L170,93.23h78.51v78.52l-20.31-20.31Zm-34.64-44.8L137,235.86,228.19,146l16.43,16.42V97.1H179.3l10,10Z"/><polygon class="cls-6" points="162.29 182.59 132.63 152.93 90.34 196.41 136.63 248.48 138.53 246.61 162.29 182.59"/><rect class="cls-7" x="57.2" y="139.06" width="72.18" height="122.99" transform="translate(169.13 -7.22) rotate(45)"/><circle class="cls-8" cx="113.28" cy="180.55" r="18.4"/><circle class="cls-4" cx="75.87" cy="238.84" r="5.79"/><circle class="cls-4" cx="53.69" cy="218.59" r="5.79"/><polygon class="cls-5" points="156.41 176.71 75.33 257.25 36.59 218.52 117.68 137.98 114.95 135.24 31.12 218.51 75.32 262.71 159.15 179.44 156.41 176.71"/><path class="cls-9" d="M174,206.78a30,30,0,1,1,30.55,29.45A30,30,0,0,1,174,206.78Z"/><path class="cls-3" d="M179.68,206.67a24.27,24.27,0,1,1,24.71,23.83A24.27,24.27,0,0,1,179.68,206.67Z"/><path class="cls-10" d="M203.93,233a26.8,26.8,0,0,1-26.78-26.31h0a26.81,26.81,0,0,1,26.3-27.29h.5a26.8,26.8,0,0,1,.49,53.6Zm0-52.64h-.48a25.83,25.83,0,0,0-25.36,26.3h0A25.83,25.83,0,1,0,204,180.39Z"/><path class="cls-9" d="M200.12,221.1a12.86,12.86,0,0,1-5.59-1.93l-1.2-.83,2.2-6.52,2.08,1.32a9.1,9.1,0,0,0,4.8,1.38h.15c1.39,0,3-.62,3-2.2,0-.85-.31-1.85-3.55-3.09-4-1.5-8.15-3.72-8.24-8.85a8.57,8.57,0,0,1,6.13-8.33l-.09-2.68,6.45-.12.08,2.28A12.25,12.25,0,0,1,210.8,193l1.42.8-2.3,6.44-2-1.09a8.09,8.09,0,0,0-4.13-1.08h-.17c-1.57,0-2.46.64-2.44,1.69,0,.77.31,1.42,4,2.88s7.72,3.69,7.82,9.26a8.94,8.94,0,0,1-6.41,8.71l.09,2.8-6.49.13Z"/><path class="cls-9" d="M0,215.16a21.06,21.06,0,1,1,21.45,20.67A21.07,21.07,0,0,1,0,215.16Z"/><path class="cls-3" d="M4,215.08a17,17,0,1,1,17.34,16.73A17,17,0,0,1,4,215.08Z"/><path class="cls-10" d="M21.05,233.59a18.81,18.81,0,0,1-18.8-18.47h0A18.8,18.8,0,0,1,20.71,196h.35a18.81,18.81,0,0,1,.34,37.62Zm0-37h-.33A18.12,18.12,0,0,0,2.93,215.1h0a18.13,18.13,0,1,0,18.13-18.46Z"/><path class="cls-9" d="M18.38,225.21a9.1,9.1,0,0,1-3.93-1.35l-.84-.59,1.54-4.57,1.47.93a6.41,6.41,0,0,0,3.36,1h.11c1,0,2.11-.43,2.09-1.54,0-.59-.22-1.3-2.49-2.17-2.82-1-5.72-2.61-5.79-6.21a6,6,0,0,1,4.31-5.85l-.06-1.88,4.52-.09,0,1.6a8.86,8.86,0,0,1,3.15,1l1,.56-1.62,4.52-1.39-.76A5.7,5.7,0,0,0,21,209h-.12c-1.1,0-1.73.45-1.72,1.18,0,.54.22,1,2.82,2s5.42,2.59,5.49,6.5a6.27,6.27,0,0,1-4.5,6.11l.06,2-4.55.09Z"/><path class="cls-9" d="M211.89,231.84a21.06,21.06,0,1,1,21.45,20.68A21.06,21.06,0,0,1,211.89,231.84Z"/><path class="cls-3" d="M215.91,231.77a17,17,0,1,1,17.35,16.72A17,17,0,0,1,215.91,231.77Z"/><path class="cls-10" d="M232.94,250.27a18.81,18.81,0,0,1-18.8-18.47h0a18.8,18.8,0,0,1,18.46-19.15H233a18.82,18.82,0,0,1,.34,37.63Zm0-37h-.34a18.15,18.15,0,0,0-17.8,18.47h0A18.14,18.14,0,1,0,233,213.32Z"/><path class="cls-9" d="M230.27,241.9a9.11,9.11,0,0,1-3.93-1.36l-.85-.58,1.55-4.58,1.46.93a6.37,6.37,0,0,0,3.37,1H232c1,0,2.11-.44,2.09-1.55,0-.59-.22-1.3-2.5-2.17-2.81-1.05-5.71-2.61-5.78-6.21a6,6,0,0,1,4.3-5.85l-.06-1.87,4.53-.09.05,1.6a8.6,8.6,0,0,1,3.15,1l1,.56-1.62,4.52-1.4-.77a5.66,5.66,0,0,0-2.89-.76h-.13c-1.1,0-1.72.46-1.71,1.19,0,.54.22,1,2.82,2s5.42,2.59,5.49,6.5a6.29,6.29,0,0,1-4.5,6.12l.06,2-4.55.09Z"/><path class="cls-3" d="M293.31,136.18,273,138.07l7.48,7.49-17.32,17.33a2.41,2.41,0,1,0,3.42,3.41L283.86,149l7.55,7.55Z"/><path class="cls-1" d="M282.61,181.34l-20.35,1.9,7.49,7.49-17.33,17.33a2.41,2.41,0,1,0,3.42,3.41l17.32-17.32,7.55,7.55Z"/><path class="cls-9" d="M224.22,46.77l-20.35,1.9,7.49,7.49L194,73.48a2.41,2.41,0,1,0,3.41,3.42l17.33-17.32,7.55,7.55Z"/><polygon class="cls-11" points="69.36 274.65 69.68 279.8 76.43 280.44 76.43 274.82 69.36 274.65"/><polygon class="cls-11" points="98.29 274.49 98.93 279.64 103.44 279.64 104.4 274.82 98.29 274.49"/><path class="cls-12" d="M64.54,162s-2.47,5.36-2.25,9,2.25,9.64,2.25,9.64l2.25,95.15s8.14,1.5,11.57,0c-.64,0,3.54-91,3.54-91l1.93.32s5.55,29.8,6.1,34.4c1.29,10.6,5.79,55.82,5.79,55.82s7.71,1.07,11.14-.64c.22-.43-1.5-47.79-3.1-62.58s-7.4-46.29-8.68-49.5Z"/><path class="cls-13" d="M88.65,63s5.14-1,4.82-4.82-4.82-4.83-8.68-3.22-6.75,3.86-10,4.5-7.72,2.89-7.72,9.32,9.64,9.33,9.64,9.33Z"/><path class="cls-14" d="M54.57,100.27s12.86-8.36,23.15-7.72,27,7.07,27,7.07,2.25,14.79-1.61,23.79-8.35,37.93-8,39.22c-10.93,5.78-28.61-.65-28.61-.65s0-22.82-1.93-31.5S54.9,112.8,54.9,112.8Z"/><path class="cls-13" d="M78.68,100.27c1,.64,4.18,5.46,4.18,5.46l-1.61,36.32,4.83,7.08L90.9,138.2l-5.47-32.79L89,100.27l-5.14-6.75-3.22,2.25Z"/><rect class="cls-15" x="19.12" y="111.6" width="79.17" height="49.85" rx="5.28"/><text class="cls-16" transform="translate(24.3 124.88)">CREDIT CARD</text><rect class="cls-9" x="25.35" y="128.46" width="14.77" height="11.07"/><rect class="cls-17" x="25.35" y="142.35" width="14.77" height="5.74"/><rect class="cls-18" x="25.35" y="150.15" width="33.35" height="3.6"/><rect class="cls-17" x="43.4" y="142.35" width="14.77" height="5.74"/><rect class="cls-17" x="61.45" y="142.35" width="14.77" height="5.74"/><rect class="cls-17" x="79.49" y="142.35" width="14.77" height="5.74"/><path class="cls-19" d="M86.56,124.07a6.23,6.23,0,1,1-6.23-6.24A6.23,6.23,0,0,1,86.56,124.07Z"/><path class="cls-20" d="M92.43,124.07a6.23,6.23,0,1,1-6.23-6.24A6.23,6.23,0,0,1,92.43,124.07Z"/><polygon class="cls-14" points="87.58 93.84 128.19 95.44 142.97 65.87 151.65 71.66 134.94 107.98 102.15 118.59 87.58 93.84"/><path class="cls-21" d="M50.72,103.48s-19.61,19.29-19,28,31.18,25.07,31.18,25.07l7.39-8.36-22.82-17L62.93,112.8s5.31-4.78,1.29-10.93C58.75,93.52,50.72,103.48,50.72,103.48Z"/><path class="cls-22" d="M76.75,78.09l1,14.46s4.5,6.11,11.25-.32l-.32-6.75Z"/><path class="cls-11" d="M76.11,73.26s-4.82,2.9-2.57,6.11a5.08,5.08,0,0,0,5.79,1.93s3.53,7.07,10.28,8.36,9.32-6.43,9.32-10S89,58.8,89,58.8l-9.32,5.14S80.93,72.94,76.11,73.26Z"/><path class="cls-18" d="M73.54,97.05l4.18-7.71s1.93,4.82,6.11,4.18a8,8,0,0,0,5.78-3.86l3.86,7.07-5.79,6.75-3.53-6.43L79,103.16Z"/><path class="cls-11" d="M62.93,156.52s.64,3.86,3.54,5.46,10,1,10,1A9.3,9.3,0,0,0,80.61,161c1.93-1.61-10.29-12.86-10.29-12.86Z"/><path class="cls-11" d="M143.51,66.19s.64-5.14,2.14-7.93,6.22-11.14,7.5-10.71S150.37,57,150.37,57s2.78-2.58,4.5-1.08,2.78,6.43,1.71,7.93-6.64,6.86-6.64,6.86Z"/><path class="cls-23" d="M67.75,285.26s-.8-4.5,1.61-7.07c.32-.16,4.5,1.45,7.07.16.65,0,15.75,2.73,16.4,6.27-1.61.32-17.68,0-17.68,0l-2.57-1,.32,1.76S67.75,284.94,67.75,285.26Z"/><path class="cls-23" d="M96.47,285.26s-.8-4.5,1.61-7.07c.32-.16,4.5,1.45,7.07.16.64,0,15.75,2.73,16.39,6.27-1.6.32-17.68,0-17.68,0l-2.57-1,.32,1.76S96.47,284.94,96.47,285.26Z"/><path class="cls-9" d="M168.7,10.29h0a1.51,1.51,0,0,1-1.5-1.5V1.5A1.51,1.51,0,0,1,168.7,0h0a1.5,1.5,0,0,1,1.5,1.5V8.79A1.5,1.5,0,0,1,168.7,10.29Z"/><path class="cls-9" d="M156.09,14.54h0a1.51,1.51,0,0,0,.29-2.11L152,6.63a1.52,1.52,0,0,0-2.11-.28h0a1.51,1.51,0,0,0-.28,2.1l4.41,5.8A1.5,1.5,0,0,0,156.09,14.54Z"/><path class="cls-9" d="M148,23.53h0a1.51,1.51,0,0,1-2.07.48l-6.19-3.85a1.5,1.5,0,0,1-.48-2.06h0a1.52,1.52,0,0,1,2.07-.49l6.19,3.85A1.52,1.52,0,0,1,148,23.53Z"/><path class="cls-9" d="M144.88,35.08h0a1.5,1.5,0,0,0-1.56-1.44l-7.28.28a1.5,1.5,0,0,0-1.44,1.56h0a1.5,1.5,0,0,0,1.56,1.44l7.28-.29A1.5,1.5,0,0,0,144.88,35.08Z"/><path class="cls-9" d="M182.24,13.76h0a1.5,1.5,0,0,1-.41-2.08l4-6A1.5,1.5,0,0,1,188,5.22h0a1.51,1.51,0,0,1,.42,2.08l-4.06,6.05A1.5,1.5,0,0,1,182.24,13.76Z"/><path class="cls-9" d="M190.86,22.25h0a1.49,1.49,0,0,0,2.09.36l6-4.2a1.52,1.52,0,0,0,.36-2.1h0a1.51,1.51,0,0,0-2.1-.35l-5.94,4.2A1.5,1.5,0,0,0,190.86,22.25Z"/><path class="cls-9" d="M194.65,33.6h0a1.5,1.5,0,0,1,1.47-1.53l7.29-.15a1.5,1.5,0,0,1,1.52,1.47h0a1.49,1.49,0,0,1-1.47,1.53l-7.28.15A1.51,1.51,0,0,1,194.65,33.6Z"/><path class="cls-9" d="M148.46,36A21.06,21.06,0,1,1,169.9,56.7,21,21,0,0,1,148.46,36Z"/><path class="cls-3" d="M152.48,36a17,17,0,1,1,17.35,16.72A17,17,0,0,1,152.48,36Z"/><path class="cls-10" d="M169.5,54.46A18.81,18.81,0,0,1,150.7,36h0a18.83,18.83,0,0,1,18.47-19.16h.34a18.82,18.82,0,0,1,.35,37.63Zm0-36.95h-.33A18.13,18.13,0,0,0,151.38,36h0a18.13,18.13,0,1,0,18.13-18.47Z"/><path class="cls-9" d="M166.83,46.09a9.16,9.16,0,0,1-3.93-1.36l-.84-.58,1.55-4.58,1.46.93a6.44,6.44,0,0,0,3.36,1h.11c1,0,2.11-.43,2.09-1.54,0-.59-.21-1.3-2.49-2.17-2.82-1-5.72-2.61-5.78-6.21a6,6,0,0,1,4.3-5.85l-.06-1.88,4.53-.08.05,1.59a8.87,8.87,0,0,1,3.14,1l1,.56-1.61,4.52-1.4-.76a5.67,5.67,0,0,0-2.9-.76h-.12c-1.1,0-1.73.45-1.71,1.19,0,.53.21,1,2.82,2s5.41,2.59,5.48,6.5a6.25,6.25,0,0,1-4.5,6.11l.07,2-4.56.09Z"/></g></g></svg>